<?xml version="1.0" standalone="no"?>
<!DOCTYPE svg PUBLIC "-//W3C//DTD SVG 20010904//EN"
 "http://www.w3.org/TR/2001/REC-SVG-20010904/DTD/svg10.dtd">
<svg version="1.0" xmlns="http://www.w3.org/2000/svg"
 width="700.000000pt" height="700.000000pt" viewBox="0 0 700.000000 700.000000"
 preserveAspectRatio="xMidYMid meet">
<metadata>
Created by potrace 1.11, written by Peter Selinger 2001-2013
</metadata>
<g transform="translate(0.000000,700.000000) scale(0.100000,-0.100000)"
fill="#000000" stroke="none">
<path d="M3265 6833 c-187 -13 -487 -65 -675 -119 -667 -192 -1266 -589 -1694
-1124 -250 -312 -442 -666 -566 -1040 -36 -108 -90 -312 -104 -390 -2 -14 -12
-65 -20 -115 -31 -170 -43 -345 -40 -580 2 -227 5 -267 25 -415 67 -489 243
-962 514 -1375 515 -786 1316 -1309 2250 -1469 17 -3 41 -8 55 -10 32 -6 121
-16 230 -26 91 -7 478 -5 545 4 22 3 65 8 95 11 30 3 66 8 80 10 14 2 45 7 70
10 37 5 117 21 254 50 73 16 246 69 246 76 0 4 -4 18 -10 31 -5 13 -53 158
-106 323 -53 165 -98 301 -99 302 -1 2 -42 -9 -91 -23 -224 -65 -457 -98 -699
-98 -141 0 -285 8 -365 20 -111 16 -266 47 -331 65 -40 11 -81 22 -89 24 -8 2
-64 21 -125 43 -372 134 -679 328 -961 607 -227 224 -374 424 -505 686 -222
444 -310 888 -276 1389 6 93 10 130 31 255 35 220 114 465 225 695 57 121 84
167 189 330 110 169 346 425 532 576 401 326 922 532 1445 571 172 13 423 7
555 -12 96 -15 263 -48 329 -66 40 -11 75 -18 77 -16 6 6 201 662 198 665 -3
4 -9 6 -169 46 -107 26 -124 30 -225 47 -71 11 -98 15 -180 24 -30 4 -66 9
-80 11 -32 6 -468 11 -535 7z"/>
<path d="M4520 6644 c-6 -14 -10 -28 -10 -31 0 -3 -43 -138 -96 -301 -92 -280
-96 -296 -78 -309 10 -7 23 -13 30 -13 23 0 262 -103 364 -157 57 -31 142 -80
187 -109 l82 -53 53 74 c63 89 294 422 325 469 l22 34 -67 43 c-161 103 -379
220 -532 284 -98 41 -243 95 -258 95 -7 0 -17 -12 -22 -26z"/>
<path d="M5355 6053 c-55 -76 -122 -168 -150 -205 -101 -136 -150 -206 -148
-212 1 -4 37 -34 80 -68 142 -113 300 -268 413 -408 24 -30 45 -56 46 -58 2
-3 84 58 164 121 9 7 42 32 75 57 33 25 65 50 71 55 6 6 64 50 128 98 96 73
115 91 107 105 -18 32 -169 207 -257 297 -143 145 -388 355 -416 355 -7 0 -58
-62 -113 -137z"/>
<path d="M6177 5445 c-10 -7 -27 -20 -40 -29 -12 -8 -58 -42 -102 -74 -44 -32
-147 -107 -230 -167 -82 -60 -154 -112 -159 -116 -5 -4 24 -59 64 -121 86
-132 193 -338 244 -471 l36 -94 318 112 c174 61 322 114 329 116 8 3 7 16 -4
49 -24 73 -123 298 -171 390 -78 149 -237 404 -257 413 -6 3 -19 -1 -28 -8z"/>
<path d="M6365 4433 c-159 -52 -304 -100 -322 -108 l-31 -14 25 -88 c29 -106
47 -182 63 -283 6 -41 13 -86 16 -100 4 -28 14 -137 19 -215 2 -27 4 -52 4
-55 1 -3 43 -5 94 -4 50 1 207 3 348 4 l256 2 -3 72 c-7 170 -39 429 -64 526
-5 19 -11 46 -14 60 -7 43 -17 83 -41 165 -12 44 -26 92 -29 108 -4 15 -12 27
-19 26 -6 -1 -142 -44 -302 -96z"/>
<path d="M3257 4066 c-132 -55 -208 -154 -222 -293 -13 -116 37 -227 142 -320
32 -28 70 -61 84 -74 14 -13 65 -60 114 -104 49 -44 96 -87 105 -95 9 -8 51
-46 95 -85 43 -38 90 -81 105 -95 14 -14 62 -56 105 -95 43 -38 88 -79 100
-90 11 -11 59 -54 105 -95 47 -41 87 -77 90 -80 3 -4 52 -48 110 -100 58 -52
107 -97 110 -100 3 -3 50 -45 105 -94 55 -49 105 -94 110 -100 6 -6 46 -42 90
-81 44 -38 82 -72 85 -76 4 -5 250 -227 369 -334 19 -16 44 -39 55 -50 12 -11
54 -49 94 -84 l73 -65 -28 -25 c-15 -15 -53 -46 -83 -70 -30 -25 -59 -48 -64
-52 -6 -6 96 -153 125 -179 3 -3 69 -89 148 -192 151 -198 149 -197 193 -156
7 7 38 33 68 58 30 24 77 65 103 90 27 25 52 46 56 48 8 3 74 -55 317 -277 70
-64 208 -188 236 -212 26 -23 277 -250 368 -333 77 -70 87 -73 34 -11 -81 97
-346 414 -382 458 -18 23 -50 61 -71 86 -21 26 -78 93 -126 151 -48 58 -104
125 -125 150 -21 25 -54 65 -74 89 l-37 44 23 26 c13 14 30 32 39 41 8 8 57
67 108 130 l92 114 -28 23 c-27 21 -514 376 -530 386 -5 3 -40 -35 -78 -83
-39 -49 -73 -89 -76 -90 -4 0 -33 32 -65 71 -33 39 -64 77 -69 83 -6 6 -100
119 -210 251 -109 132 -206 248 -214 257 -9 9 -20 23 -26 30 -5 7 -36 45 -68
83 -33 39 -66 79 -75 90 -10 11 -62 74 -117 140 -113 135 -102 122 -225 270
-51 61 -99 119 -109 130 -89 108 -167 201 -171 205 -3 3 -61 73 -130 155 -69
83 -127 152 -130 155 -3 3 -17 21 -32 40 -15 19 -43 53 -63 75 -19 22 -61 72
-92 111 -32 39 -77 86 -101 104 -93 72 -227 90 -335 46z"/>
<path d="M6139 3480 c-10 -256 -35 -448 -84 -633 -14 -53 -25 -99 -25 -101 0
-4 29 -14 245 -77 77 -23 203 -60 280 -84 77 -23 141 -41 142 -40 5 3 71 271
77 310 4 22 8 47 11 55 6 21 19 115 29 200 13 110 16 152 21 268 l5 122 -238
1 c-130 0 -288 1 -350 2 l-112 2 -1 -25z"/>
<path d="M5996 2647 c-7 -19 -17 -45 -21 -58 -38 -124 -165 -375 -270 -536
l-34 -52 42 -30 c23 -17 152 -107 286 -200 243 -168 245 -169 261 -148 20 27
120 187 150 242 118 210 275 586 254 604 -5 4 -54 22 -109 39 -55 18 -196 64
-314 102 -117 39 -217 70 -222 70 -5 0 -15 -15 -23 -33z"/>
<path d="M4979 1317 c-154 -105 -342 -204 -525 -276 l-80 -32 114 -327 c63
-180 116 -328 117 -330 10 -11 350 140 500 222 70 38 335 204 354 222 5 4
-402 564 -410 564 -4 0 -35 -20 -70 -43z"/>
</g>
</svg>
